<svg width="109" height="48" viewBox="0 0 109 48" fill="none" xmlns="http://www.w3.org/2000/svg">
<path d="M37.0625 13.5938C37.0625 14.4896 36.8021 15.1875 36.2812 15.6875C35.7812 16.1875 35.0938 16.4375 34.2188 16.4375C33.9271 16.4375 33.6458 16.4167 33.375 16.375C33.1042 16.3125 32.8333 16.2396 32.5625 16.1562C32.2083 15.6771 31.9479 15.1042 31.7812 14.4375C31.6354 13.75 31.5 13.0521 31.375 12.3438C31.2708 11.6146 31.1458 10.9062 31 10.2188C30.8542 9.51042 30.625 8.88542 30.3125 8.34375C30.0208 7.78125 29.6042 7.33333 29.0625 7C28.5417 6.64583 27.8333 6.46875 26.9375 6.46875C26.375 6.46875 25.8125 6.53125 25.25 6.65625C24.7083 6.76042 24.1458 6.8125 23.5625 6.8125C23.2708 6.8125 22.9271 6.8125 22.5312 6.8125C22.1354 6.79167 21.7292 6.76042 21.3125 6.71875C20.9167 6.65625 20.5312 6.58333 20.1562 6.5C19.7812 6.41667 19.4688 6.29167 19.2188 6.125C19.1562 6.08333 19.0521 6.05208 18.9062 6.03125C18.7812 6.01042 18.6354 6 18.4688 6C18.3229 5.97917 18.1667 5.96875 18 5.96875C17.8542 5.96875 17.75 5.96875 17.6875 5.96875C17.0625 5.96875 16.5625 6 16.1875 6.0625C15.8333 6.125 15.5104 6.20833 15.2188 6.3125C14.9479 6.41667 14.6562 6.54167 14.3438 6.6875C14.0521 6.8125 13.6354 6.94792 13.0938 7.09375C12.6979 7.19792 12.4062 7.32292 12.2188 7.46875C12.0521 7.61458 11.9375 7.79167 11.875 8C11.8125 8.1875 11.7812 8.41667 11.7812 8.6875C11.8021 8.95833 11.8021 9.27083 11.7812 9.625C11.7604 9.875 11.7396 10.125 11.7188 10.375C11.7188 10.6042 11.7188 10.8438 11.7188 11.0938C11.7188 11.8438 11.7396 12.5938 11.7812 13.3438C11.8229 14.0938 11.8438 14.8542 11.8438 15.625C11.8438 16.1042 11.7917 16.5729 11.6875 17.0312C11.6042 17.4896 11.5625 17.9583 11.5625 18.4375C11.5625 18.875 11.6562 19.1771 11.8438 19.3438C12.0312 19.5104 12.2396 19.6354 12.4688 19.7188C12.6979 19.8021 12.9062 19.8958 13.0938 20C13.3021 20.1042 13.4062 20.3125 13.4062 20.625C13.5521 20.6458 13.6875 20.6667 13.8125 20.6875C13.9583 20.6875 14.1042 20.6875 14.25 20.6875C14.9375 20.6875 15.625 20.5938 16.3125 20.4062C17 20.1979 17.6771 20.0104 18.3438 19.8438C18.7604 19.7396 19.0625 19.4375 19.25 18.9375C19.4375 18.4375 19.5625 17.875 19.625 17.25C19.6875 16.6042 19.7188 15.9688 19.7188 15.3438C19.7188 14.7188 19.75 14.2396 19.8125 13.9062C19.8542 13.6354 19.9479 13.375 20.0938 13.125C20.2604 12.875 20.4583 12.6562 20.6875 12.4688C20.9167 12.2812 21.1667 12.1354 21.4375 12.0312C21.7083 11.9062 21.9792 11.8438 22.25 11.8438C22.5417 11.8438 22.8021 11.9062 23.0312 12.0312C23.4896 12.2604 23.8125 12.5521 24 12.9062C24.2083 13.2396 24.3438 13.6146 24.4062 14.0312C24.4688 14.4479 24.4896 14.875 24.4688 15.3125C24.4688 15.75 24.4896 16.1771 24.5312 16.5938C24.5938 17.1562 24.625 17.7083 24.625 18.25C24.625 19.25 24.5729 20.2292 24.4688 21.1875C24.3854 22.1458 24.3438 23.125 24.3438 24.125C24.3438 24.6667 24.375 25.1979 24.4375 25.7188C24.5 26.2396 24.6146 26.7604 24.7812 27.2812C24.8854 27.6562 24.9375 28 24.9375 28.3125C24.9375 28.6667 24.8958 29.0104 24.8125 29.3438C24.75 29.6771 24.7188 30.0208 24.7188 30.375C24.7188 30.5833 24.7292 30.7812 24.75 30.9688C24.7917 31.1354 24.8125 31.3229 24.8125 31.5312C24.8125 31.8438 24.7292 32.1771 24.5625 32.5312C24.4167 32.8646 24.2292 33.1771 24 33.4688C23.7708 33.7396 23.5 33.9688 23.1875 34.1562C22.8958 34.3438 22.6146 34.4375 22.3438 34.4375C21.9688 34.4375 21.6146 34.2917 21.2812 34C20.9688 33.6875 20.6875 33.3438 20.4375 32.9688C20.1875 32.5938 19.9896 32.2396 19.8438 31.9062C19.7188 31.5729 19.6562 31.375 19.6562 31.3125C19.6562 31.2083 19.6979 31.1354 19.7812 31.0938C19.8854 31.0312 19.9896 30.9792 20.0938 30.9375C20.1979 30.875 20.2917 30.8125 20.375 30.75C20.4792 30.6667 20.5312 30.5521 20.5312 30.4062C20.5312 30.3021 20.4792 30.2292 20.375 30.1875C20.2917 30.125 20.1875 30.0729 20.0625 30.0312C19.9583 29.9688 19.8542 29.8958 19.75 29.8125C19.6667 29.7083 19.625 29.5625 19.625 29.375C19.625 29.2292 19.6458 29.125 19.6875 29.0625C19.7292 28.9792 19.7812 28.9167 19.8438 28.875C19.9062 28.8333 19.9583 28.7917 20 28.75C20.0417 28.7083 20.0625 28.6562 20.0625 28.5938C20.0625 28.4271 19.9896 28.2188 19.8438 27.9688C19.6979 27.6979 19.5104 27.4375 19.2812 27.1875C19.0729 26.9375 18.8333 26.7292 18.5625 26.5625C18.3125 26.375 18.0833 26.2812 17.875 26.2812C17.5625 26.2812 17.25 26.3438 16.9375 26.4688C16.6458 26.5729 16.3333 26.625 16 26.625C15.7292 26.625 15.4688 26.5729 15.2188 26.4688C14.9896 26.3646 14.7604 26.3125 14.5312 26.3125C14.3229 26.3125 14.0938 26.4062 13.8438 26.5938C13.5938 26.7604 13.3438 26.9688 13.0938 27.2188C12.8646 27.4479 12.6354 27.6875 12.4062 27.9375C12.1979 28.1667 12.0312 28.3542 11.9062 28.5C11.7396 28.6667 11.6458 28.9167 11.625 29.25C11.6042 29.5625 11.5938 29.8333 11.5938 30.0625C11.5938 30.7917 11.6354 31.5104 11.7188 32.2188C11.8229 32.9062 11.875 33.6146 11.875 34.3438C11.875 34.6562 11.8646 34.9688 11.8438 35.2812C11.8438 35.5938 11.8438 35.9062 11.8438 36.2188C11.8438 36.4688 11.8438 36.7917 11.8438 37.1875C11.8646 37.5833 11.9167 37.9792 12 38.375C12.0833 38.7708 12.2083 39.125 12.375 39.4375C12.5417 39.75 12.7708 39.9479 13.0625 40.0312C13.5 40.1771 13.9896 40.2292 14.5312 40.1875H15.1562C15.6979 40.1875 16.2083 40.2396 16.6875 40.3438C17.1667 40.4479 17.5312 40.7188 17.7812 41.1562C17.9896 41.5104 18.1354 41.9062 18.2188 42.3438C18.3229 42.7604 18.375 43.1771 18.375 43.5938C18.375 43.8438 18.3438 44.125 18.2812 44.4375C18.2396 44.75 18.1458 45.0417 18 45.3125C17.875 45.5625 17.6979 45.7812 17.4688 45.9688C17.2604 46.1354 17 46.2188 16.6875 46.2188C16.0833 46.2188 15.4375 46.1458 14.75 46C14.0833 45.875 13.4167 45.8125 12.75 45.8125C12.2292 45.8125 11.7188 45.875 11.2188 46C10.4062 46.2292 9.59375 46.375 8.78125 46.4375C7.96875 46.5 7.125 46.5312 6.25 46.5312C5.85417 46.5312 5.38542 46.5208 4.84375 46.5C4.30208 46.4792 3.78125 46.4062 3.28125 46.2812C2.80208 46.1771 2.38542 46.0208 2.03125 45.8125C1.69792 45.5833 1.53125 45.2708 1.53125 44.875C1.53125 44.4375 1.5625 43.9688 1.625 43.4688C1.6875 42.9688 1.8125 42.5104 2 42.0938C2.20833 41.6771 2.48958 41.3333 2.84375 41.0625C3.19792 40.7917 3.66667 40.6562 4.25 40.6562C4.41667 40.6562 4.59375 40.6667 4.78125 40.6875C4.96875 40.7083 5.15625 40.7188 5.34375 40.7188C5.73958 40.7188 6.03125 40.6562 6.21875 40.5312C6.40625 40.3854 6.5625 40.2292 6.6875 40.0625C6.8125 39.8958 6.9375 39.7396 7.0625 39.5938C7.1875 39.4479 7.375 39.3542 7.625 39.3125C7.58333 38.6458 7.52083 38 7.4375 37.375C7.375 36.7292 7.34375 36.0729 7.34375 35.4062C7.34375 34.8438 7.39583 34.2917 7.5 33.75C7.60417 33.2083 7.79167 32.6875 8.0625 32.1875C7.85417 31.9583 7.69792 31.5625 7.59375 31C7.48958 30.4375 7.41667 29.8646 7.375 29.2812C7.35417 28.6979 7.34375 28.1979 7.34375 27.7812C7.34375 27.3438 7.34375 27.1354 7.34375 27.1562C7.34375 26.8021 7.39583 26.4583 7.5 26.125C7.625 25.7708 7.6875 25.4167 7.6875 25.0625C7.6875 24.8958 7.66667 24.75 7.625 24.625C7.60417 24.4792 7.59375 24.3229 7.59375 24.1562C7.59375 23.9062 7.61458 23.7292 7.65625 23.625C7.69792 23.5208 7.75 23.4479 7.8125 23.4062C7.875 23.3646 7.92708 23.3229 7.96875 23.2812C8.01042 23.2188 8.03125 23.1042 8.03125 22.9375C8.03125 22.4167 7.95833 21.9062 7.8125 21.4062C7.6875 20.8854 7.625 20.3542 7.625 19.8125C7.625 19.3333 7.66667 18.8646 7.75 18.4062C7.85417 17.9271 7.90625 17.4479 7.90625 16.9688C7.90625 16.0312 7.85417 15.1042 7.75 14.1875C7.66667 13.25 7.625 12.3021 7.625 11.3438C7.625 10.8646 7.58333 10.3333 7.5 9.75C7.41667 9.14583 7.26042 8.58333 7.03125 8.0625C6.80208 7.54167 6.48958 7.10417 6.09375 6.75C5.69792 6.39583 5.19792 6.21875 4.59375 6.21875C4.30208 6.21875 4.01042 6.23958 3.71875 6.28125C3.44792 6.30208 3.16667 6.3125 2.875 6.3125C2.60417 6.3125 2.34375 6.29167 2.09375 6.25C1.84375 6.1875 1.60417 6.07292 1.375 5.90625C1.33333 5.51042 1.23958 5.125 1.09375 4.75C0.947917 4.375 0.875 3.98958 0.875 3.59375C0.875 3.30208 0.989583 3.0625 1.21875 2.875C1.46875 2.6875 1.78125 2.54167 2.15625 2.4375C2.53125 2.33333 2.94792 2.26042 3.40625 2.21875C3.88542 2.17708 4.36458 2.15625 4.84375 2.15625C5.44792 2.15625 6.01042 2.17708 6.53125 2.21875C7.07292 2.23958 7.47917 2.25 7.75 2.25C8.04167 2.25 8.39583 2.23958 8.8125 2.21875C9.25 2.19792 9.67708 2.15625 10.0938 2.09375C10.5312 2.01042 10.9271 1.88542 11.2812 1.71875C11.6354 1.55208 11.8958 1.3125 12.0625 1C12.3125 1 12.5312 1.05208 12.7188 1.15625C12.9062 1.23958 13.0938 1.34375 13.2812 1.46875C13.4688 1.57292 13.6562 1.67708 13.8438 1.78125C14.0312 1.86458 14.2396 1.90625 14.4688 1.90625C14.7604 1.90625 15.0312 1.84375 15.2812 1.71875C15.5521 1.57292 15.8333 1.5 16.125 1.5C16.3958 1.5 16.6354 1.5625 16.8438 1.6875C17.0521 1.79167 17.2917 1.84375 17.5625 1.84375C18.125 1.84375 18.6771 1.78125 19.2188 1.65625C19.7812 1.53125 20.3438 1.40625 20.9062 1.28125C21.4688 1.13542 22.0208 1 22.5625 0.875C23.125 0.75 23.6875 0.6875 24.25 0.6875C24.6458 0.6875 25.0104 0.75 25.3438 0.875C25.6979 0.979167 26.0208 1.17708 26.3125 1.46875C27.1667 1.11458 28.1042 0.9375 29.125 0.9375C29.25 0.9375 29.5208 0.958333 29.9375 1C30.3542 1.04167 30.7917 1.09375 31.25 1.15625C31.7083 1.19792 32.125 1.25 32.5 1.3125C32.875 1.375 33.0833 1.4375 33.125 1.5C33.25 1.60417 33.3438 1.78125 33.4062 2.03125C33.4688 2.28125 33.5208 2.55208 33.5625 2.84375C33.625 3.11458 33.6875 3.38542 33.75 3.65625C33.8125 3.90625 33.9062 4.09375 34.0312 4.21875C34.1146 4.30208 34.2188 4.36458 34.3438 4.40625C34.4896 4.42708 34.625 4.45833 34.75 4.5C34.875 4.54167 34.9792 4.60417 35.0625 4.6875C35.1667 4.75 35.2292 4.86458 35.25 5.03125C35.2917 5.53125 35.3229 6.02083 35.3438 6.5C35.3646 6.95833 35.4479 7.4375 35.5938 7.9375C35.7188 8.375 35.8646 8.83333 36.0312 9.3125C36.1979 9.79167 36.3542 10.2708 36.5 10.75C36.6667 11.2292 36.8021 11.7083 36.9062 12.1875C37.0104 12.6667 37.0625 13.1354 37.0625 13.5938ZM4.09375 43.75C4.09375 43.4167 4.02083 43.125 3.875 42.875C3.75 42.625 3.51042 42.4792 3.15625 42.4375C3.15625 42.5208 3.14583 42.6042 3.125 42.6875C3.125 42.75 3.125 42.8229 3.125 42.9062C3.125 43.2396 3.1875 43.5312 3.3125 43.7812C3.45833 44.0312 3.70833 44.1771 4.0625 44.2188C4.0625 44.1354 4.0625 44.0625 4.0625 44C4.08333 43.9167 4.09375 43.8333 4.09375 43.75ZM73.75 44.6562C73.75 44.9271 73.6771 45.1979 73.5312 45.4688C73.4062 45.7396 73.1875 45.875 72.875 45.875C72.6458 45.875 72.4375 45.8542 72.25 45.8125C72.0625 45.75 71.8542 45.7188 71.625 45.7188C71.2917 45.7188 71.1146 45.7812 71.0938 45.9062C71.0938 46.0312 71.0729 46.1667 71.0312 46.3125C70.9896 46.4792 70.8333 46.625 70.5625 46.75C70.3125 46.875 69.7708 46.9375 68.9375 46.9375C68.4583 46.9375 67.9792 46.8958 67.5 46.8125C67.0417 46.7292 66.5729 46.6875 66.0938 46.6875C65.7396 46.6875 65.3542 46.7396 64.9375 46.8438C64.7708 46.6354 64.5833 46.4792 64.375 46.375C64.1875 46.2708 64 46.1562 63.8125 46.0312C63.6458 45.9271 63.5 45.7917 63.375 45.625C63.25 45.4583 63.1875 45.2083 63.1875 44.875C63.1875 44.6458 63.0417 44.5312 62.75 44.5312C62.6458 44.5312 62.5417 44.5417 62.4375 44.5625C62.3542 44.5833 62.2604 44.5938 62.1562 44.5938C62.0521 44.5938 61.9583 44.5729 61.875 44.5312C61.8125 44.4688 61.7812 44.3854 61.7812 44.2812C61.7812 44.2396 61.7917 44.2083 61.8125 44.1875C61.375 44.2083 61.0417 44.3542 60.8125 44.625C60.5833 44.8958 60.3333 45.1771 60.0625 45.4688C59.875 45.6562 59.6771 45.8021 59.4688 45.9062C59.2604 45.9896 59.0417 46.0625 58.8125 46.125C58.6042 46.2083 58.375 46.3021 58.125 46.4062C57.8958 46.5104 57.6667 46.6667 57.4375 46.875C57.25 47.0625 56.9375 47.1979 56.5 47.2812C56.0625 47.3854 55.5938 47.4583 55.0938 47.5C54.6146 47.5625 54.1354 47.5938 53.6562 47.5938C53.1979 47.6146 52.8333 47.625 52.5625 47.625C51.9375 47.625 51.4271 47.5729 51.0312 47.4688C50.6562 47.3646 50.3125 47.2292 50 47.0625C49.7083 46.9167 49.3958 46.75 49.0625 46.5625C48.7292 46.3958 48.3021 46.2292 47.7812 46.0625C47.2188 45.8958 46.5417 45.5833 45.75 45.125C44.9583 44.6667 44.1979 44.1354 43.4688 43.5312C42.7604 42.9271 42.1562 42.2812 41.6562 41.5938C41.1562 40.8854 40.9062 40.2083 40.9062 39.5625C40.9062 39.2708 40.8333 38.9792 40.6875 38.6875C40.5625 38.375 40.3958 38.0833 40.1875 37.8125C40 37.5208 39.8021 37.2396 39.5938 36.9688C39.3854 36.6771 39.2188 36.4062 39.0938 36.1562C38.6979 35.3646 38.4375 34.5312 38.3125 33.6562C38.2083 32.7812 38.1562 31.9062 38.1562 31.0312C38.1562 30.2188 38.2188 29.4479 38.3438 28.7188C38.4688 27.9688 38.625 27.2396 38.8125 26.5312C39 25.8021 39.1875 25.0833 39.375 24.375C39.5833 23.6667 39.7708 22.9271 39.9375 22.1562C40.0417 21.6146 40.1875 21.2083 40.375 20.9375C40.5625 20.6458 40.7708 20.3958 41 20.1875C41.25 19.9792 41.5104 19.7812 41.7812 19.5938C42.0729 19.4062 42.3646 19.1354 42.6562 18.7812C42.7812 18.6354 42.8542 18.5104 42.875 18.4062C42.9167 18.2812 42.9479 18.1875 42.9688 18.125C43.0104 18.0417 43.0729 17.9896 43.1562 17.9688C43.2604 17.9271 43.4479 17.9062 43.7188 17.9062C43.8854 17.9062 44.0104 17.8542 44.0938 17.75C44.1979 17.6458 44.2917 17.5208 44.375 17.375C44.4583 17.2292 44.5312 17.0833 44.5938 16.9375C44.6771 16.7708 44.7812 16.6458 44.9062 16.5625C45.0312 16.4792 45.1875 16.4167 45.375 16.375C45.5625 16.3333 45.7604 16.3021 45.9688 16.2812C46.1771 16.2604 46.375 16.2396 46.5625 16.2188C46.7708 16.1979 46.9583 16.1562 47.125 16.0938C47.5625 15.9062 47.9167 15.7396 48.1875 15.5938C48.4792 15.4479 48.75 15.3229 49 15.2188C49.2708 15.0938 49.5729 15 49.9062 14.9375C50.2396 14.875 50.6771 14.8438 51.2188 14.8438C51.9271 14.8438 52.625 14.9375 53.3125 15.125C54.0208 15.2917 54.7188 15.4792 55.4062 15.6875C56.0938 15.8958 56.7812 16.0938 57.4688 16.2812C58.1562 16.4479 58.8646 16.5312 59.5938 16.5312C60.1771 16.5312 60.6354 16.4062 60.9688 16.1562C61.3229 15.9062 61.5833 15.5833 61.75 15.1875C61.9375 14.7917 62.0521 14.3542 62.0938 13.875C62.1562 13.3958 62.1875 12.9271 62.1875 12.4688C62.1875 11.6562 62.1354 10.8542 62.0312 10.0625C61.9271 9.25 61.8542 8.44792 61.8125 7.65625L61.5312 7.78125C61.3229 7.78125 61.1354 7.72917 60.9688 7.625C60.8021 7.5 60.6458 7.375 60.5 7.25C60.3542 7.10417 60.1979 6.97917 60.0312 6.875C59.8646 6.75 59.6771 6.6875 59.4688 6.6875C59.2396 6.6875 59.0938 6.75 59.0312 6.875C58.9688 6.97917 58.8646 7.08333 58.7188 7.1875C58.4896 7.20833 58.25 7.22917 58 7.25C57.7708 7.25 57.5417 7.25 57.3125 7.25H55.9375C55.6458 7.25 55.3125 7.16667 54.9375 7C54.5833 6.8125 54.2396 6.58333 53.9062 6.3125C53.5729 6.02083 53.2917 5.71875 53.0625 5.40625C52.8542 5.07292 52.75 4.75 52.75 4.4375C52.75 4.16667 52.8333 3.88542 53 3.59375C53.1875 3.28125 53.4062 3 53.6562 2.75C53.9271 2.5 54.2188 2.30208 54.5312 2.15625C54.8438 1.98958 55.1458 1.90625 55.4375 1.90625C55.7083 1.90625 55.9583 1.97917 56.1875 2.125C56.4167 2.25 56.6667 2.3125 56.9375 2.3125C57.3958 2.3125 57.8333 2.23958 58.25 2.09375C58.6875 1.94792 59.1458 1.875 59.625 1.875C60.1042 1.875 60.5521 1.95833 60.9688 2.125C61.4062 2.27083 61.8646 2.34375 62.3438 2.34375C62.6979 2.34375 63.0521 2.33333 63.4062 2.3125C63.7812 2.29167 64.1458 2.28125 64.5 2.28125C64.875 2.28125 65.25 2.3125 65.625 2.375C66.0208 2.4375 66.3854 2.5625 66.7188 2.75V2.9375C66.7188 3.22917 66.75 3.52083 66.8125 3.8125C66.8958 4.08333 66.9792 4.36458 67.0625 4.65625C67.1667 4.92708 67.25 5.19792 67.3125 5.46875C67.3958 5.73958 67.4375 6.02083 67.4375 6.3125C67.4375 6.6875 67.3438 7.05208 67.1562 7.40625C66.9896 7.73958 66.9062 8.10417 66.9062 8.5C66.9062 9.22917 66.9896 9.95833 67.1562 10.6875C67.3229 11.3958 67.4062 12.1146 67.4062 12.8438C67.4062 14.6771 67.3958 16.5104 67.375 18.3438C67.3542 20.1562 67.3438 21.9896 67.3438 23.8438C67.3438 25.7188 67.2812 27.5833 67.1562 29.4375C67.0312 31.2708 66.9688 33.125 66.9688 35C66.9688 35.6875 67 36.4688 67.0625 37.3438C67.125 38.1979 67.2917 39.0104 67.5625 39.7812C67.8333 40.5312 68.2292 41.1667 68.75 41.6875C69.2917 42.2083 70.0312 42.4688 70.9688 42.4688C71.1562 42.4688 71.3333 42.4583 71.5 42.4375C71.6875 42.3958 71.875 42.375 72.0625 42.375C72.3333 42.375 72.5729 42.4479 72.7812 42.5938C72.9896 42.7396 73.1667 42.9271 73.3125 43.1562C73.4583 43.3854 73.5625 43.6354 73.625 43.9062C73.7083 44.1771 73.75 44.4271 73.75 44.6562ZM62.4062 29.1562C62.4062 28.3854 62.3333 27.5625 62.1875 26.6875C62.0625 25.8125 61.8229 25 61.4688 24.25C61.1354 23.4792 60.6667 22.8333 60.0625 22.3125C59.4792 21.7917 58.7396 21.5104 57.8438 21.4688C57.6562 21.4479 57.4271 21.3646 57.1562 21.2188C56.9062 21.0729 56.6458 20.9167 56.375 20.75C56.1042 20.5833 55.8333 20.4375 55.5625 20.3125C55.3125 20.1667 55.0833 20.0938 54.875 20.0938C54.6875 20.0938 54.5104 20.1354 54.3438 20.2188C54.1771 20.2812 54.0104 20.3646 53.8438 20.4688C53.6771 20.5521 53.5104 20.6354 53.3438 20.7188C53.1771 20.7812 52.9896 20.8125 52.7812 20.8125C52.4271 20.8125 52.0833 20.7917 51.75 20.75C51.4375 20.7083 51.1042 20.6875 50.75 20.6875C49.7083 20.6875 48.7604 21 47.9062 21.625C47.0729 22.25 46.3542 23.0312 45.75 23.9688C45.1458 24.8854 44.6771 25.8854 44.3438 26.9688C44.0104 28.0312 43.8438 29.0104 43.8438 29.9062C43.8438 30.2812 43.8646 30.6562 43.9062 31.0312C43.9688 31.4062 44 31.7812 44 32.1562C44 32.4062 43.9271 32.6146 43.7812 32.7812C43.6562 32.9271 43.5 33.0833 43.3125 33.25C43.1458 33.3958 42.9896 33.5625 42.8438 33.75C42.7188 33.9167 42.6562 34.125 42.6562 34.375H42.9062C43.4479 34.375 43.8646 34.4792 44.1562 34.6875C44.4688 34.875 44.6979 35.1354 44.8438 35.4688C45.0104 35.7812 45.1354 36.1458 45.2188 36.5625C45.3229 36.9792 45.4375 37.4062 45.5625 37.8438C45.6875 38.2604 45.8646 38.6667 46.0938 39.0625C46.3438 39.4583 46.6979 39.8125 47.1562 40.125C47.4896 40.3542 47.8542 40.6042 48.25 40.875C48.6667 41.1458 49.0938 41.3958 49.5312 41.625C49.9896 41.8542 50.4375 42.0521 50.875 42.2188C51.3333 42.3646 51.7708 42.4375 52.1875 42.4375C52.8542 42.4375 53.5104 42.3438 54.1562 42.1562C54.8021 41.9479 55.4583 41.8438 56.125 41.8438C56.375 41.8438 56.6458 41.875 56.9375 41.9375C57.4167 41.1875 57.9688 40.4792 58.5938 39.8125C59.2396 39.125 60.0208 38.6458 60.9375 38.375L60.9062 37.6875C60.9062 37 60.9792 36.3333 61.125 35.6875C61.2917 35.0208 61.4688 34.3438 61.6562 33.6562C61.8438 32.9688 62.0104 32.2604 62.1562 31.5312C62.3229 30.8021 62.4062 30.0104 62.4062 29.1562ZM108.594 44.375C108.594 45.1042 108.344 45.6771 107.844 46.0938C107.365 46.5312 106.781 46.8542 106.094 47.0625C105.406 47.2917 104.688 47.4375 103.938 47.5C103.208 47.5625 102.583 47.5938 102.062 47.5938C101.375 47.5938 100.802 47.5312 100.344 47.4062C99.9062 47.2812 99.5208 47.1458 99.1875 47C98.8542 46.875 98.5625 46.75 98.3125 46.625C98.0625 46.5 97.8021 46.4375 97.5312 46.4375C97.1771 46.4375 96.8229 46.5 96.4688 46.625C96.1354 46.75 95.7917 46.8125 95.4375 46.8125C95.1875 46.8125 94.9792 46.7708 94.8125 46.6875C94.6667 46.6042 94.5417 46.5 94.4375 46.375C94.3333 46.2708 94.2292 46.1771 94.125 46.0938C94.0417 46.0104 93.9375 45.9688 93.8125 45.9688C93.6667 45.9688 93.5521 46.0208 93.4688 46.125C93.3854 46.25 93.2917 46.3854 93.1875 46.5312C93.0833 46.6771 92.9271 46.8021 92.7188 46.9062C92.5312 47.0312 92.25 47.0938 91.875 47.0938C91.4375 47.0938 91.0104 47.0417 90.5938 46.9375C90.1771 46.8542 89.75 46.8125 89.3125 46.8125C88.875 46.8125 88.4375 46.8854 88 47.0312C87.5833 47.1979 87.1875 47.2812 86.8125 47.2812C86.6458 47.2812 86.5208 47.2188 86.4375 47.0938C86.3542 46.9896 86.2604 46.9375 86.1562 46.9375C85.8021 46.9375 85.4271 47.0208 85.0312 47.1875C84.6562 47.3542 84.2708 47.4375 83.875 47.4375C83.6667 47.4375 83.4583 47.4062 83.25 47.3438C83.0625 47.3021 82.8646 47.2812 82.6562 47.2812C82.3021 47.2812 81.9479 47.3646 81.5938 47.5312C81.2396 47.6979 80.8021 47.7812 80.2812 47.7812C80.0938 47.7812 79.6771 47.75 79.0312 47.6875C78.4062 47.6458 77.7604 47.5729 77.0938 47.4688C76.4271 47.3646 75.8229 47.2292 75.2812 47.0625C74.7604 46.9167 74.5 46.75 74.5 46.5625C74.5 46.0208 74.5938 45.4792 74.7812 44.9375C74.9896 44.3958 75.0938 43.875 75.0938 43.375V43.3125C74.8229 43.3125 74.6667 43.1667 74.625 42.875C74.6667 42.7917 74.7292 42.7292 74.8125 42.6875C74.9167 42.625 75.0208 42.5833 75.125 42.5625C75.2292 42.5208 75.3229 42.4688 75.4062 42.4062C75.4896 42.3438 75.5312 42.25 75.5312 42.125V42C76.3646 42.0833 77.1771 42.1354 77.9688 42.1562C78.7812 42.1771 79.625 42.1875 80.5 42.1875C81.3125 42.1875 82.2083 42.1667 83.1875 42.125C84.1875 42.0625 85.1042 41.9062 85.9375 41.6562C86.7917 41.4062 87.5 41.0312 88.0625 40.5312C88.6458 40.0104 88.9375 39.2917 88.9375 38.375V38.1562V37.6562C88.8333 35.3646 88.7188 33.1146 88.5938 30.9062C88.4896 28.6771 88.4375 26.4167 88.4375 24.125C88.4375 23.5208 88.3854 22.9375 88.2812 22.375C88.1979 21.7917 88.1562 21.2083 88.1562 20.625C88.1562 19.8958 88.2812 19.1667 88.5312 18.4375C88.8021 17.7083 89.2188 17.0938 89.7812 16.5938C89.7604 16.4688 89.7083 16.3854 89.625 16.3438C89.5417 16.2812 89.4375 16.2396 89.3125 16.2188C89.1875 16.1979 89.0625 16.1771 88.9375 16.1562C88.8333 16.1354 88.7396 16.1042 88.6562 16.0625C88.5312 16 88.4479 15.8542 88.4062 15.625C88.3646 15.3958 88.3229 15.1458 88.2812 14.875C88.2604 14.6042 88.2292 14.3438 88.1875 14.0938C88.1667 13.8229 88.1042 13.6146 88 13.4688C88.0625 12.8646 88.1667 12.2708 88.3125 11.6875C88.4583 11.1042 88.5312 10.5104 88.5312 9.90625C88.5312 9.46875 88.4688 9.125 88.3438 8.875C88.2396 8.625 88.1146 8.41667 87.9688 8.25C87.8229 8.08333 87.6875 7.9375 87.5625 7.8125C87.4583 7.66667 87.4062 7.48958 87.4062 7.28125C87.4062 7.11458 87.4583 6.95833 87.5625 6.8125L87.3125 6.78125C87.1042 6.78125 86.9479 6.83333 86.8438 6.9375C86.7396 7.04167 86.6354 7.15625 86.5312 7.28125C86.4479 7.40625 86.3542 7.52083 86.25 7.625C86.1458 7.72917 86 7.78125 85.8125 7.78125C85.6667 7.78125 85.5 7.75 85.3125 7.6875C84.9583 7.79167 84.625 7.84375 84.3125 7.84375C83.5833 7.84375 82.8542 7.75 82.125 7.5625C81.4167 7.35417 80.6979 7.25 79.9688 7.25C79.5729 7.25 79.1875 7.27083 78.8125 7.3125C78.4375 7.33333 78.0625 7.34375 77.6875 7.34375C77.1458 7.34375 76.6042 7.28125 76.0625 7.15625C75.5208 7.03125 75.0417 6.76042 74.625 6.34375V5.96875C74.625 4.86458 74.9896 4.03125 75.7188 3.46875C76.4688 2.90625 77.375 2.625 78.4375 2.625C79.1667 2.625 79.8854 2.71875 80.5938 2.90625C81.3021 3.09375 82.0208 3.1875 82.75 3.1875C83.1458 3.1875 83.5625 3.14583 84 3.0625C84.4375 2.97917 84.8854 2.88542 85.3438 2.78125C85.8021 2.67708 86.2604 2.58333 86.7188 2.5C87.1979 2.41667 87.6667 2.375 88.125 2.375C88.8333 2.375 89.5 2.53125 90.125 2.84375C90.75 3.13542 91.375 3.41667 92 3.6875L91.9688 3.9375C91.9688 4.125 92.0104 4.30208 92.0938 4.46875C92.1979 4.61458 92.3125 4.77083 92.4375 4.9375C92.5625 5.08333 92.6667 5.23958 92.75 5.40625C92.8542 5.55208 92.9062 5.71875 92.9062 5.90625C92.9062 6.09375 92.875 6.28125 92.8125 6.46875C92.7708 6.63542 92.75 6.8125 92.75 7C92.75 7.45833 92.8333 7.89583 93 8.3125C93.1875 8.72917 93.2812 9.17708 93.2812 9.65625C93.2812 10.1562 93.2188 10.6458 93.0938 11.125C92.9896 11.6042 92.9375 12.0938 92.9375 12.5938C92.9375 13.1979 93.0104 13.8021 93.1562 14.4062C93.3021 15.0104 93.375 15.6146 93.375 16.2188C93.375 16.7188 93.2917 17.2083 93.125 17.6875C92.9792 18.1667 92.9062 18.6458 92.9062 19.125C92.9062 19.4792 92.9479 19.8333 93.0312 20.1875C93.1354 20.5208 93.25 20.8542 93.375 21.1875C93.5 21.5208 93.6042 21.8646 93.6875 22.2188C93.7917 22.5521 93.8438 22.9062 93.8438 23.2812V23.9062C93.8438 24.2396 93.8125 24.5625 93.75 24.875C93.7083 25.1667 93.5729 25.4479 93.3438 25.7188C93.4479 26.1146 93.5521 26.5417 93.6562 27C93.7812 27.4583 93.8438 27.8958 93.8438 28.3125C93.8438 28.5208 93.8229 28.75 93.7812 29C93.7604 29.2292 93.7083 29.4688 93.625 29.7188C93.5625 29.9479 93.4688 30.1667 93.3438 30.375C93.2188 30.5625 93.0729 30.7188 92.9062 30.8438C93.1771 31.6354 93.3542 32.4375 93.4375 33.25C93.5208 34.0625 93.5833 34.875 93.625 35.6875C93.6458 35.9375 93.6875 36.2604 93.75 36.6562C93.8125 37.0521 93.875 37.4479 93.9375 37.8438C94 38.2188 94.0521 38.5729 94.0938 38.9062C94.1562 39.2188 94.1875 39.4375 94.1875 39.5625C94.1875 39.9167 94.125 40.2604 94 40.5938C93.875 40.9271 93.8125 41.2708 93.8125 41.625C93.8125 41.8958 93.875 42.1875 94 42.5C94.125 42.7917 94.3542 42.9375 94.6875 42.9375C94.9375 42.9375 95.1458 42.8854 95.3125 42.7812C95.5 42.6562 95.6979 42.5312 95.9062 42.4062C96.1146 42.2604 96.3542 42.1354 96.625 42.0312C96.9167 41.9062 97.3021 41.8438 97.7812 41.8438C98.3229 41.8438 98.8333 41.9167 99.3125 42.0625C99.7917 42.2083 100.302 42.2812 100.844 42.2812C101.24 42.2812 101.635 42.25 102.031 42.1875C102.448 42.1042 102.844 42.0208 103.219 41.9375C103.615 41.8333 104.01 41.7396 104.406 41.6562C104.802 41.5729 105.208 41.5312 105.625 41.5312C106.458 41.5312 107.156 41.7708 107.719 42.25C108.302 42.7292 108.594 43.4375 108.594 44.375ZM90.6562 5.46875C90.5729 5.38542 90.4688 5.30208 90.3438 5.21875C90.2396 5.13542 90.1146 5.09375 89.9688 5.09375C89.8646 5.09375 89.7708 5.14583 89.6875 5.25C89.625 5.33333 89.5938 5.42708 89.5938 5.53125L89.75 5.90625C89.8333 5.94792 89.8958 5.96875 89.9375 5.96875C90.1042 5.96875 90.2396 5.91667 90.3438 5.8125C90.4688 5.6875 90.5729 5.57292 90.6562 5.46875ZM92.5312 14.1562C92.5312 13.9896 92.4792 13.8229 92.375 13.6562C92.2917 13.4688 92.1458 13.375 91.9375 13.375C91.875 13.375 91.8021 13.3854 91.7188 13.4062C91.6562 13.4271 91.6042 13.4479 91.5625 13.4688V14.8125C91.7292 14.8958 91.8542 14.9375 91.9375 14.9375C92.1458 14.9375 92.2917 14.8542 92.375 14.6875C92.4792 14.5 92.5312 14.3229 92.5312 14.1562Z" fill="#EEEEEE"/>
</svg>
